<?xml version="1.0" encoding="UTF-8" standalone="no"?><svg xmlns="http://www.w3.org/2000/svg" xmlns:xlink="http://www.w3.org/1999/xlink"><symbol viewBox="0 0 11 10" id="iconAudio"><title>iconAudio</title><path d="M0 3v4h3l3 3V0L3 3H0zm8.1-.1l-.7.7c.4.4.6.9.6 1.4 0 .6-.2 1.1-.6 1.4l.7.7c.5-.5.9-1.3.9-2.1s-.3-1.6-.9-2.1zm1.4-1.4l-.7.7C9.5 2.9 10 3.9 10 5c0 1.1-.4 2.1-1.2 2.8l.7.7C10.4 7.6 11 6.3 11 5c0-1.4-.6-2.6-1.5-3.5z" fill="#271D62" fill-rule="evenodd"/></symbol><symbol viewBox="0 0 10 12" id="iconBook"><title>iconBook.svg</title><path d="M9.5 9h.5V0H2C.9 0 0 .9 0 2v8c0 1.1.9 2 2 2h8v-1h-.5c-.6 0-1-.4-1-1s.4-1 1-1zM2 11c-.6 0-1-.4-1-1s.4-1 1-1h6.4c-.2.3-.4.6-.4 1s.1.7.4 1H2z" fill="#732222" fill-rule="evenodd"/></symbol><symbol viewBox="0 0 16 10" id="iconCode"><title>iconCode</title><g transform="translate(2 1)" stroke="#231F20" stroke-width="2" fill="none" fill-rule="evenodd"><path d="M2 1L0 4l2 3M10 1l2 3-2 3" id="cShape"/><path d="M5 8l2-8"/></g></symbol><symbol viewBox="0 0 272 560" id="iconFb"><title>iconFb</title><path d="M168 204v-68-4c0-28 4-40 40-40h60l4-88s-28-4-68-4C112 0 68 60 68 120v80H0v96h68v264h100V296h100l4-96H168v4z" fill="#3C5A96" fill-rule="evenodd"/></symbol><symbol viewBox="-311 493 16 16" id="iconGh"><path fill="#181616" d="M-303 493c-4.4 0-8 3.6-8 8 0 3.5 2.3 6.5 5.5 7.6.4.1.5-.2.5-.4v-1.4c-2.2.5-2.7-1.1-2.7-1.1-.4-.9-.9-1.2-.9-1.2-.7-.5.1-.5.1-.5.8.1 1.2.8 1.2.8.7 1.2 1.9.9 2.3.7.1-.5.3-.9.5-1.1-1.8-.2-3.6-.9-3.6-4 0-.9.3-1.6.8-2.1-.1-.2-.4-1 .1-2.1 0 0 .7-.2 2.2.8.6-.2 1.3-.3 2-.3s1.4.1 2 .3c1.5-1 2.2-.8 2.2-.8.4 1.1.2 1.9.1 2.1.5.6.8 1.3.8 2.1 0 3.1-1.9 3.8-3.7 3.9.3.2.5.7.5 1.5v2.2c0 .2.1.5.5.4 3.2-1.1 5.5-4.1 5.5-7.6.1-4.2-3.5-7.8-7.9-7.8z"/></symbol><symbol viewBox="-311 493 16 16" id="iconInsta"><path fill="#3F729B" d="M-298 494h-10c-1.1 0-2 .9-2 2v10c0 1.1.9 2 2 2h10c1.1 0 2-.9 2-2v-10c0-1.1-.9-2-2-2zm-5 4c1.7 0 3 1.3 3 3s-1.3 3-3 3-3-1.3-3-3 1.3-3 3-3zm6 8c0 .6-.4 1-1 1h-10c-.6 0-1-.4-1-1v-6h2.1c-.1.3-.1.7-.1 1 0 2.2 1.8 4 4 4s4-1.8 4-4c0-.3-.1-.7-.1-1h2.1v6zm0-9c0 .6-.4 1-1 1h-1c-.6 0-1-.4-1-1v-1c0-.6.4-1 1-1h1c.6 0 1 .4 1 1v1z"/></symbol><symbol viewBox="0 0 14 12" id="iconTw"><title>iconTw</title><path d="M14 1.6c-.5.2-1.1.4-1.6.5.6-.4 1-.9 1.3-1.6-.6.3-1.2.6-1.8.7-.5-.6-1.3-.9-2.1-.9-1.6 0-2.9 1.3-2.9 2.9 0 .2 0 .4.1.7-2.4-.1-4.5-1.3-5.9-3-.2.4-.4.9-.4 1.4 0 1 .5 1.9 1.3 2.4-.5 0-.9-.1-1.3-.4 0 1.4 1 2.6 2.3 2.8-.2.1-.5.1-.8.1-.2 0-.4 0-.5-.1.4 1.1 1.4 2 2.7 2-1 .8-2.2 1.2-3.6 1.2H.1c1.3.8 2.8 1.3 4.4 1.3 5.3 0 8.2-4.4 8.2-8.2V3c.4-.3.9-.8 1.3-1.4z" fill="#2AA9E0" fill-rule="evenodd"/></symbol></svg>