<?xml version="1.0" encoding="UTF-8" standalone="no"?>
<svg width="11px" height="10px" viewBox="0 0 11 10" version="1.1" xmlns="http://www.w3.org/2000/svg" xmlns:xlink="http://www.w3.org/1999/xlink" xmlns:sketch="http://www.bohemiancoding.com/sketch/ns">
    <!-- Generator: Sketch 3.3.2 (12043) - http://www.bohemiancoding.com/sketch -->
    <title>iconAudio</title>
    <desc>Created with Sketch.</desc>
    <defs></defs>
    <g id="Page-1" stroke="none" stroke-width="1" fill="none" fill-rule="evenodd" sketch:type="MSPage">
        <g id="iconAudio" sketch:type="MSLayerGroup" fill="#271D62">
            <path d="M0,3 L0,7 L3,7 L6,10 L6,0 L3,3 L0,3 L0,3 Z M8.1,2.9 L7.4,3.6 C7.8,4 8,4.5 8,5 C8,5.6 7.8,6.1 7.4,6.4 L8.1,7.1 C8.6,6.6 9,5.8 9,5 C9,4.2 8.7,3.4 8.1,2.9 L8.1,2.9 Z M9.5,1.5 L8.8,2.2 C9.5,2.9 10,3.9 10,5 C10,6.1 9.6,7.1 8.8,7.8 L9.5,8.5 C10.4,7.6 11,6.3 11,5 C11,3.6 10.4,2.4 9.5,1.5 L9.5,1.5 Z" id="Shape" sketch:type="MSShapeGroup"></path>
        </g>
    </g>
</svg>