<?xml version="1.0" encoding="utf-8"?>
<!-- Generator: Adobe Illustrator 18.1.1, SVG Export Plug-In . SVG Version: 6.00 Build 0)  -->
<svg version="1.1" id="Layer_1" xmlns="http://www.w3.org/2000/svg" xmlns:xlink="http://www.w3.org/1999/xlink" x="0px" y="0px"
	 viewBox="-311 493 16 16" enable-background="new -311 493 16 16" xml:space="preserve">
<path fill="#181616" d="M-303,493c-4.4,0-8,3.6-8,8c0,3.5,2.3,6.5,5.5,7.6c0.4,0.1,0.5-0.2,0.5-0.4c0-0.2,0-0.7,0-1.4
	c-2.2,0.5-2.7-1.1-2.7-1.1c-0.4-0.9-0.9-1.2-0.9-1.2c-0.7-0.5,0.1-0.5,0.1-0.5c0.8,0.1,1.2,0.8,1.2,0.8c0.7,1.2,1.9,0.9,2.3,0.7
	c0.1-0.5,0.3-0.9,0.5-1.1c-1.8-0.2-3.6-0.9-3.6-4c0-0.9,0.3-1.6,0.8-2.1c-0.1-0.2-0.4-1,0.1-2.1c0,0,0.7-0.2,2.2,0.8
	c0.6-0.2,1.3-0.3,2-0.3c0.7,0,1.4,0.1,2,0.3c1.5-1,2.2-0.8,2.2-0.8c0.4,1.1,0.2,1.9,0.1,2.1c0.5,0.6,0.8,1.3,0.8,2.1
	c0,3.1-1.9,3.8-3.7,3.9c0.3,0.2,0.5,0.7,0.5,1.5c0,1.1,0,1.9,0,2.2c0,0.2,0.1,0.5,0.5,0.4c3.2-1.1,5.5-4.1,5.5-7.6
	C-295,496.6-298.6,493-303,493z"/>
</svg>
