<?xml version="1.0" encoding="UTF-8" standalone="no"?>
<svg width="14px" height="12px" viewBox="0 0 14 12" version="1.1" xmlns="http://www.w3.org/2000/svg" xmlns:xlink="http://www.w3.org/1999/xlink" xmlns:sketch="http://www.bohemiancoding.com/sketch/ns">
    <!-- Generator: Sketch 3.3.2 (12043) - http://www.bohemiancoding.com/sketch -->
    <title>iconTw</title>
    <desc>Created with Sketch.</desc>
    <defs></defs>
    <g id="Page-1" stroke="none" stroke-width="1" fill="none" fill-rule="evenodd" sketch:type="MSPage">
        <g id="iconTw" sketch:type="MSLayerGroup" fill="#2AA9E0">
            <path d="M14,1.6 C13.5,1.8 12.9,2 12.4,2.1 C13,1.7 13.4,1.2 13.7,0.5 C13.1,0.8 12.5,1.1 11.9,1.2 C11.4,0.6 10.6,0.3 9.8,0.3 C8.2,0.3 6.9,1.6 6.9,3.2 C6.9,3.4 6.9,3.6 7,3.9 C4.6,3.8 2.5,2.6 1.1,0.9 C0.9,1.3 0.7,1.8 0.7,2.3 C0.7,3.3 1.2,4.2 2,4.7 C1.5,4.7 1.1,4.6 0.7,4.3 L0.7,4.3 C0.7,5.7 1.7,6.9 3,7.1 C2.8,7.2 2.5,7.2 2.2,7.2 C2,7.2 1.8,7.2 1.7,7.1 C2.1,8.2 3.1,9.1 4.4,9.1 C3.4,9.9 2.2,10.3 0.8,10.3 L0.1,10.3 C1.4,11.1 2.9,11.6 4.5,11.6 C9.8,11.6 12.7,7.2 12.7,3.4 L12.7,3 C13.1,2.7 13.6,2.2 14,1.6 L14,1.6 Z" id="Shape" sketch:type="MSShapeGroup"></path>
        </g>
    </g>
</svg>
