<?xml version="1.0" encoding="utf-8"?>
<!-- Generator: Adobe Illustrator 18.1.1, SVG Export Plug-In . SVG Version: 6.00 Build 0)  -->
<svg version="1.1" id="レイヤー_1" xmlns="http://www.w3.org/2000/svg" xmlns:xlink="http://www.w3.org/1999/xlink" x="0px"
	 y="0px" viewBox="-311 493 16 16" enable-background="new -311 493 16 16" xml:space="preserve">
<g id="Layer_4">
</g>
<g id="Layer_5">
</g>
<g id="Layer_6">
</g>
<g id="Layer_8">
	<path fill="#3F729B" d="M-298,494h-10c-1.1,0-2,0.9-2,2v10c0,1.1,0.9,2,2,2h10c1.1,0,2-0.9,2-2v-10C-296,494.9-296.9,494-298,494z
		 M-303,498c1.7,0,3,1.3,3,3c0,1.7-1.3,3-3,3c-1.7,0-3-1.3-3-3C-306,499.3-304.7,498-303,498z M-297,506c0,0.6-0.4,1-1,1h-10
		c-0.6,0-1-0.4-1-1v-6h2.1c-0.1,0.3-0.1,0.7-0.1,1c0,2.2,1.8,4,4,4c2.2,0,4-1.8,4-4c0-0.3-0.1-0.7-0.1-1h2.1V506z M-297,497
		c0,0.6-0.4,1-1,1h-1c-0.6,0-1-0.4-1-1v-1c0-0.6,0.4-1,1-1h1c0.6,0,1,0.4,1,1V497z"/>
</g>
</svg>
