<?xml version="1.0" encoding="UTF-8" standalone="no"?>
<svg width="10px" height="12px" viewBox="0 0 10 12" version="1.1" xmlns="http://www.w3.org/2000/svg" xmlns:xlink="http://www.w3.org/1999/xlink" xmlns:sketch="http://www.bohemiancoding.com/sketch/ns">
    <!-- Generator: Sketch 3.3.2 (12043) - http://www.bohemiancoding.com/sketch -->
    <title>iconBook.svg</title>
    <desc>Created with Sketch.</desc>
    <defs></defs>
    <g id="Page-1" stroke="none" stroke-width="1" fill="none" fill-rule="evenodd" sketch:type="MSPage">
        <g id="iconBook.svg" sketch:type="MSLayerGroup" fill="#732222">
            <path d="M9.5,9 L10,9 L10,0 L2,0 C0.9,0 0,0.9 0,2 L0,10 C0,11.1 0.9,12 2,12 L10,12 L10,11 L9.5,11 C8.9,11 8.5,10.6 8.5,10 C8.5,9.4 8.9,9 9.5,9 L9.5,9 Z M2,11 C1.4,11 1,10.6 1,10 C1,9.4 1.4,9 2,9 L8.4,9 C8.2,9.3 8,9.6 8,10 C8,10.4 8.1,10.7 8.4,11 L2,11 L2,11 Z" id="Shape" sketch:type="MSShapeGroup"></path>
        </g>
    </g>
</svg>